# xmcd CD database file
#
# Track frame offsets:
#	150
#	51072
#	83290
#	113232
#	137472
#	175412
#	205860
#	237802
#	262352
#	288715
#
# Disc length: 4094 seconds
#
# Revision: 4
# Processed by: cddbd v1.5.2PL0 Copyright (c) Steve Scherf et al.
# Submitted via: CDex 1.81
#
DISCID=8c0ffc0a
DTITLE=Herbie Hancock - The Essential Herbie Hancock [Disc 2]
DYEAR=2006
DGENRE=Jazz
TTITLE0=Butterfly
TTITLE1=People Music
TTITLE2=Milestones
TTITLE3=4 A.M.
TTITLE4=Come Running to Me
TTITLE5=Finger Painting
TTITLE6=Stars in Your Eyes
TTITLE7=Rockit
TTITLE8=St. Louis Blues
TTITLE9=Manhattan
EXTD=YEAR: 2006
EXTT0=
EXTT1=
EXTT2=
EXTT3=
EXTT4=
EXTT5=
EXTT6=
EXTT7=
EXTT8=
EXTT9=
PLAYORDER=
